<svg xmlns="http://www.w3.org/2000/svg" viewBox="0 0 720 420" role="img" aria-labelledby="title desc"><title id="title">地</title><desc id="desc">小脚踩在草地上</desc><rect width="720" height="420" rx="54" fill="#f8efd9"/><path d="M0 250c128-48 256-54 384-16s240 32 336-30v216H0z" fill="#a7d48c"/><path d="M0 320c122-28 256-28 402 0 116 22 220 20 318-10v110H0z" fill="#8bc174"/><g transform="translate(310 128)" fill="#f0b07a"><ellipse cx="-34" cy="86" rx="32" ry="68" transform="rotate(-12 -34 86)"/><ellipse cx="52" cy="86" rx="32" ry="68" transform="rotate(12 52 86)"/></g><g stroke="#4d9a55" stroke-width="9" stroke-linecap="round"><path d="M154 276l-18-42M154 276l20-36M560 268l-16-42M560 268l24-34"/></g><text x="360" y="370" text-anchor="middle" font-family="serif" font-size="42" fill="#244532">脚下就是地</text></svg>
