<svg xmlns="http://www.w3.org/2000/svg" viewBox="0 0 720 420" role="img" aria-labelledby="title desc"><title id="title">人</title><desc id="desc">两个小朋友牵手走路</desc><rect width="720" height="420" rx="54" fill="#dff5ff"/><circle cx="92" cy="76" r="34" fill="#fff7b8"/><path d="M0 330c120-74 236-82 350-28 116 55 236 48 370-44v162H0z" fill="#bfe7c9"/><path d="M96 332c125-96 265-108 407-36" fill="none" stroke="#8bc9a7" stroke-width="20" stroke-linecap="round"/><g transform="translate(250 120)"><circle cx="0" cy="0" r="32" fill="#f7b36d"/><circle cx="110" cy="0" r="32" fill="#f2a1a1"/><path d="M0 42l-36 110M0 42l42 110M0 48l55 44M110 42l-42 110M110 42l36 110M110 48L55 92" fill="none" stroke="#2f4b39" stroke-width="18" stroke-linecap="round"/><path d="M-26-8q26 14 52 0M84-8q26 14 52 0" fill="none" stroke="#2f4b39" stroke-width="6" stroke-linecap="round"/></g><text x="360" y="370" text-anchor="middle" font-family="serif" font-size="42" fill="#244532">你和我，都是人</text></svg>
