<svg xmlns="http://www.w3.org/2000/svg" viewBox="0 0 720 420" role="img" aria-labelledby="title desc"><title id="title">手</title><desc id="desc">小手接住落叶</desc><rect width="720" height="420" rx="54" fill="#fff0dc"/><path d="M426 118c50-50 102-48 154 8-52 48-104 46-154-8z" fill="#77be76"/><path d="M500 128c-58 34-92 72-112 118" fill="none" stroke="#4f9b58" stroke-width="10" stroke-linecap="round"/><g transform="translate(246 130)" fill="#f2b37e" stroke="#9b633f" stroke-width="8" stroke-linecap="round"><path d="M70 182c-40-14-62-44-58-82 3-28 24-30 40-12V30c0-34 38-34 38 0v72-92c0-34 38-34 38 0v94-78c0-32 36-32 36 0v96-60c0-30 34-30 34 0v100c0 68-56 106-128 80z"/></g><text x="360" y="370" text-anchor="middle" font-family="serif" font-size="42" fill="#244532">小手接住一片叶</text></svg>
