<svg xmlns="http://www.w3.org/2000/svg" viewBox="0 0 720 420" role="img" aria-labelledby="title desc"><title id="title">下</title><desc id="desc">雨点从云朵落下</desc><rect width="720" height="420" rx="54" fill="#dff3ff"/><g fill="#fff"><circle cx="278" cy="112" r="48"/><circle cx="338" cy="88" r="60"/><circle cx="414" cy="118" r="48"/><rect x="268" y="112" width="170" height="48" rx="24"/></g><g stroke="#63b8e6" stroke-width="12" stroke-linecap="round"><path d="M284 202v84"/><path d="M358 202v84"/><path d="M432 202v84"/></g><path d="M260 262l24 28 24-28M334 262l24 28 24-28M408 262l24 28 24-28" fill="none" stroke="#63b8e6" stroke-width="12" stroke-linecap="round" stroke-linejoin="round"/><path d="M0 336c132-44 260-44 384 0s230 42 336-12v96H0z" fill="#bfe7c9"/><text x="360" y="370" text-anchor="middle" font-family="serif" font-size="42" fill="#244532">小雨点落下来</text></svg>
